<svg xmlns="http://www.w3.org/2000/svg" xmlns:xlink="http://www.w3.org/1999/xlink" viewBox="0 0 500 500"><defs><style>.cls-1,.cls-10,.cls-11,.cls-20,.cls-8,.cls-9{fill:none;}.cls-2{fill:#533415;}.cls-3{fill:#e6d8bd;}.cls-4{fill:#c9b594;}.cls-5{fill:#6d512a;}.cls-6{fill:#675330;}.cls-7{fill:#977b63;}.cls-10,.cls-11,.cls-8,.cls-9{stroke:#000;}.cls-10,.cls-20,.cls-8,.cls-9{stroke-linecap:round;stroke-linejoin:round;}.cls-8{stroke-width:5px;}.cls-11,.cls-9{stroke-width:4px;}.cls-10{stroke-width:5.5px;}.cls-11{stroke-miterlimit:10;}.cls-12{fill:#e6d8bb;}.cls-13{fill:#fff5eb;}.cls-14{fill:#cab799;}.cls-15{fill:#ceb893;}.cls-16{fill:#fff;}.cls-17{fill:#de9491;}.cls-18{clip-path:url(#clip-path);}.cls-19{fill:#d95560;}.cls-20{stroke:#fff;stroke-width:6px;opacity:0.75;}</style><clipPath id="clip-path"><path class="cls-1" d="M144,209.19a2.18,2.18,0,0,1,.14-2.59c3.67-4.42,10.89-4.37,10.89-4.37,7.08,0,10.12,2.72,11.17,4a1.65,1.65,0,0,1,.16,1.84,9.29,9.29,0,0,1-3.53,2.93,14.49,14.49,0,0,1-2.71,1.19,22.78,22.78,0,0,1-11.11.15,8.46,8.46,0,0,1-3.84-1.89A6.88,6.88,0,0,1,144,209.19Z"/></clipPath></defs><g id="水"><path class="cls-2" d="M85.58,209.46l25.07,18.35c-1.53,22.31,25.79,49.52,25.79,49.52,5.09-2.44,41.78-25.52,41.78-25.52,4.28,3.66,2.67,9,2.67,9l-4.93,8.8L155.1,284.35l3.09,3.82,11.31-3.5,20.18-3.55s15.9,5.31,16.36,6.19,6.88-3.48,6.88-3.48l11-5.12,10.47,2.12L245,288.17l1.59,23.41-1.44,15.28,8.14-15.9,1-23.65-11.92-20.18-38.19-1-13.48-17.4L194.57,236l9.66-8.48,7.31-6.42,3.14.46,11.69,10,18.21,10.83,6.3,14.74,11.7,2.83,7.69,6.65,10.21-10.17c11.62-6.42,22.93,5.09,22.93,5.09,8.56,10.2,5.19,23.8,5.19,23.8-.75,24.77-11.71,34.47-11.71,34.47-5.25,8.49-9.37,8-9.37,8l13.25,1.09a99.53,99.53,0,0,0,38.56-16.76c26.3-19.64,41.88-33.25,41.88-33.25,17.29-15,41.44-5.19,41.44-5.19-20,9.47-30.57,18-30.57,18C374.65,308.82,368.9,319,368.9,319c-13,19.53-20.6,25.41-20.6,25.41-12.17,13.84-36.69,21.79-36.69,21.79-33,10.55-54.83,8.3-54.83,8.3-44-.5-65.57-14.64-65.57-14.64-19,.68-36.18-6.92-36.18-6.92-21-10.28-28.44-21.82-28.44-21.82-20.07-17.81-30.92-45.94-30.92-45.94-15.9-37.6-12.08-63.9-12.08-63.9Z"/><path class="cls-3" d="M121.54,239.52l9,19,11.31-7.79,16.78-8.07L169,240.9l6.94,4.42,4.93,5.72,2.52,10.4L155.1,285.13l3.55,4,19.49-9.67,16.43,2.6,12.69,6.1,10.35-7.05,13.26-1.9,10.48,4.61,6.57,17.66-2.44,22.77c3.44-2.46,5.91-6.26,7.66-10,3.16-6.86,6-15.14,6-22.69a37.38,37.38,0,0,0-1.33-6.53c-1.44-6.05-5.23-9.58-9.4-14.19a50.37,50.37,0,0,0-5.82-5.55l-17.11,1.87-18.19-2.65-10.34-9.57-.38-13.4,3.77-5.53,4.89-4.47-3.2-3.06-25.24,10-32.14,2.86Z"/><path class="cls-4" d="M243.84,287.31c2.8-1.51,12.4-.71,14.8,2.1.59.68.63,4.61.56,7.89a36.23,36.23,0,0,1-1.64,10.18c-1.93,6-4.22,8.94-7.6,13.4l-4.48,5.91,1.13-30.5Z"/><path class="cls-4" d="M220.41,267.86a77.84,77.84,0,0,0,15.4,4.57,26.33,26.33,0,0,1,3.93.9,48.77,48.77,0,0,1,18.1,11.27c-3.69-10.91-9.92-16.74-9.92-16.74l-3.32-2.6-14.1,2.48Z"/><path class="cls-4" d="M183.26,257.77a21.39,21.39,0,0,1,1.11,7.76,19.56,19.56,0,0,1-6.56,14.11c-.39.34-.63.52-.63.52l-18.34,9-1.83-4,20.52-18,4.42-5.35Z"/><path class="cls-5" d="M110.34,237.59c4.9,23.23,13,34.09,13,34.09,7.49,9,14.06,5.65,14.06,5.65l39.89-23.23,2.46-3.38L174.27,244h0c-3.93-4.26-9.92-3.41-9.92-3.41C151.62,244.77,139,253.68,139,253.68l-6.2,4.09c-7.8-9.79-9.91-18.57-9.91-18.57Z"/><path class="cls-5" d="M203,229.64l2.22,1.87,9.48-1.87c-.08-3.36-3.9-6.42-3.9-6.42Z"/><path class="cls-5" d="M210.09,231.51c-2.94,5.33-2.43,9.49-1.18,12.31a11.53,11.53,0,0,0,5.3,5.47c11.34,5.83,26.34,5.23,30.67,4.91a4,4,0,0,0,2.84-1.39c3-3.74-3.88-9.69-3.88-9.69-13.19-9.66-23.1-11.91-23.1-11.91Z"/><path class="cls-5" d="M154.68,297.51c13.29-7,30.57-4.58,30.57-4.58,11.46,2.29,16.51,14.67,16.51,14.67a133.07,133.07,0,0,0,5.5-19.43l-13.76-6.1H172.88l-15.3,9.63Z"/><path class="cls-5" d="M204.23,323.56a57.73,57.73,0,0,1,3.5-17.43A24.53,24.53,0,0,1,229.39,290a13.43,13.43,0,0,1,2.86.13c7.32,1.26,12.82,10.65,12.89,17.5,0,2.63.34-5.65.34-5.65l-6.86-19.88L227.39,278l-12.71,4.12-6.76,8.41-4.11,12.58L203,316.62Z"/><path class="cls-5" d="M265.89,300c1.35-10.78,6-18.89,8.91-23.76a20.23,20.23,0,0,1,19.3-9.89c.56.05,1.09.13,1.58.21a14.28,14.28,0,0,1,9.66,6.08,12.53,12.53,0,0,1,2.2,7.49c0,.54.24-9.55.24-9.55l-1.16-5.73L301,257.07l-14.45-3-8.82,4.6-8.22,9.22h0C263.67,277.79,265.89,300,265.89,300Z"/><path class="cls-5" d="M246.61,264.48c5.66,6.65,7,7,7,7h0a18.41,18.41,0,0,1,11.31,7l2.29-7.95c-7.51-8.72-18.49-8.1-18.49-8.1Z"/><path class="cls-6" d="M258.47,323.56l-6.57,11.71c29.5,11,54.11,3.67,54.11,3.67,25.07-6.88,42.81-23.39,42.81-23.39,47.54-46.47,67.56-39.44,67.56-39.44-5.2-5.5-18.49-3.49-18.49-3.49-19.11,5-35.07,19.44-35.07,19.44l-25.39,21.35-12.1,7.13h0c-11.83,9.07-35.83,9.39-35.83,9.39h0c-10.7,1.06-26.73-5.15-26.73-5.15Z"/><path class="cls-7" d="M132.66,261.59c9.67-7.53,20.83-12.17,25.19-13.91a16.55,16.55,0,0,1,10.39-1c4.6,1.21,7.13,6.31,7.13,6.31-.54-.9,3.88,6.91,1.85,12.6L176,268.51l5.82-6.91L178.14,246l-13.79-3.9-20.71,6.72-8.53,9Z"/><path class="cls-7" d="M212.31,236a28.13,28.13,0,0,1,14.37,1.61c13.91,5.5,18.19,9.48,18.19,9.48l2.9,3.21-5.91-9.81L225,232.37l-10.32-2-6.76,1.1,3.62,2.94Z"/><path class="cls-7" d="M210.78,223.22l4.58,6,6.31,1.23-5.45-9.09-2.42-.53a2.48,2.48,0,0,0-3,2.43Z"/><path class="cls-7" d="M247.77,263.27c6.88-1.53,14.7,3.86,14.7,3.86a17.91,17.91,0,0,1,5.21,5.13l3.48-8.42-10.92-4.93-10.38-1.14Z"/><path class="cls-7" d="M265.89,298.35c.49-10.42,4.46-19.57,7.21-24.73a18.72,18.72,0,0,1,16.8-10.05,15,15,0,0,1,2.66.27,18.93,18.93,0,0,1,15,10.74v-8.25l-11.37-10.24-11.71.3-9.38,4.39-8.2,10.9L266.26,283Z"/><path class="cls-7" d="M157.22,295.22a49.49,49.49,0,0,1,20.23-13.15c17.88-1,23.54,5.24,23.54,5.24,7.13,4,5,6.34,5,6.34l-1.8,1.19a25.62,25.62,0,0,0-7.64-5.24,33.68,33.68,0,0,0-17.5-2.78c-1.72.17-3.33.4-4.8.66a35.84,35.84,0,0,0-13.3,5.3Z"/><path class="cls-7" d="M204.23,319.37c2.08-21,9.73-28.15,9.73-28.15a18.73,18.73,0,0,1,7.9-4.9c8.29-2.69,17.83,1.26,20.87,9.43.34.93,3.51,10.43,3.51,10.43l-2.4-15.65-10.42-10.37-14.13.92-9.2,6.23-6.28,11Z"/><path class="cls-8" d="M270.08,327.19c24.62,7.46,34.33-19.58,34.33-19.58,4.85-12.48,4.63-26.24,3.56-35.72a19,19,0,0,0-27.79-14.71c-.36.19-.71.39-1.05.59a27.8,27.8,0,0,0-12,15.72c-5.28,16.91-1.08,37.56-1.08,37.56"/><path class="cls-9" d="M249.86,257.08a29.37,29.37,0,0,1,19.62,7.4"/><path class="cls-10" d="M192.43,359.12c21.1,16.51,70.34,15.36,70.34,15.36,52.34-1.15,77.1-23.16,77.1-23.16,14.91-10.32,27.29-30,27.29-30,34.16-46.32,55.49-46.09,55.49-46.09-23.85-8.06-44.45,5.35-44.45,5.35-8.48,5.14-24.5,19.1-30.72,24.94a69.34,69.34,0,0,1-7.06,5.85c-47.66,34.11-81.71,11.42-81.71,11.42"/><path class="cls-8" d="M83.75,202.43c-6.12,35.16,6.72,69.4,6.72,69.4,17.12,50.45,54.34,75.24,54.34,75.24,25.61,17.09,47.62,12.05,47.62,12.05,8.28-1.44,12.6-5.42,14.08-7.07a1.53,1.53,0,0,1,1.58-.42c24.61,7.47,34.33-19.57,34.33-19.57,4.85-12.48,4.63-26.25,3.56-35.72a19,19,0,0,0-27.79-14.71c-.36.19-.71.39-1.05.59a27.74,27.74,0,0,0-12,15.72C199.83,314.85,204,335.5,204,335.5"/><path class="cls-9" d="M151.57,298.33c15-19,34-17.21,34-17.21,14.76,0,22.37,9.36,22.37,9.36"/><path class="cls-9" d="M131.75,259.6c18-15.9,30.87-18.09,30.87-18.09h0c18.81-2,19.27,18.09,19.27,18.09,1.87,10.73-39.77,32.24-47.42,36.09-.76.38-1.51.75-2.3,1.07-12.66,5.09-18.77-3.83-18.77-3.83a44.11,44.11,0,0,1-6.11-13.46"/><path class="cls-8" d="M214.68,219.47c4.92,6.42,16,14.61,16,14.61"/><path class="cls-9" d="M243.84,264.48c16,9.8,18.65,29.44,18.65,29.44,2.4,23.46-11.61,40.2-11.61,40.2"/><path class="cls-11" d="M249.73,251.42A14.47,14.47,0,0,0,243,241.18c-27.39-17.28-37.72-8.59-37.72-8.59-16.28,11.42-4.81,26.78-4.81,26.78,6.54,8,25.73,8.14,36.2,7.56a13.84,13.84,0,0,0,13.15-14.75C249.79,251.92,249.76,251.67,249.73,251.42Z"/><path class="cls-9" d="M172.88,243.12a19.61,19.61,0,0,0-10.64,5.65"/><path class="cls-9" d="M178.14,249.67a20.23,20.23,0,0,0-12.54,7"/><path class="cls-9" d="M180.89,260.14c-6.11-.08-9.86,4.74-9.86,4.74"/><path class="cls-9" d="M203.81,233.69c8.34-.31,10.87,2.29,10.87,2.29"/><path class="cls-9" d="M196.92,244a46.3,46.3,0,0,1,14.62,0"/><path class="cls-9" d="M200.31,256.09c3.13-3.44,9.78-2.95,9.78-2.95"/><path class="cls-9" d="M220.71,281.12c.16,7.14-.3,14.1-.3,14.1"/><path class="cls-9" d="M230.5,280.16a73,73,0,0,1,0,14.3"/><path class="cls-9" d="M238.52,283.83c.23,5.05,0,10.63,0,10.63"/><path class="cls-9" d="M283.31,256.39c.31,4.51,0,15.29,0,15.29"/><path class="cls-9" d="M293.32,256.39a107.77,107.77,0,0,1,0,14.91"/><path class="cls-9" d="M301.89,259.91a89.43,89.43,0,0,1,0,10.7"/><path class="cls-12" d="M122.08,130.22C93.53,142.2,83,172.13,83,172.13c-10,31.52,3.1,44.79,3.1,44.79,25.14,26.78,65.45,24.45,65.45,24.45,31.84-2.25,50.43-12.92,50.43-12.92,26.05-21.74,21.6-40.7,21.6-40.7,3.23-21.4-31.17-51.42-31.17-51.42C155.1,115.91,122.08,130.22,122.08,130.22Z"/><path class="cls-13" d="M153.55,170.27c8,0,13.38,1.82,16.18,3.12a13.22,13.22,0,0,1,4.11,2.86,13.43,13.43,0,0,1,3.28,5.85,10.39,10.39,0,0,1-.29,4.59,13.36,13.36,0,0,1-4,6.93L171,194.71l.09-.1a10.92,10.92,0,0,0,.43-13.83,15.76,15.76,0,0,0-4.19-3.44l-11.7-6.52Z"/><path class="cls-13" d="M162.24,129.05a66.15,66.15,0,0,1,22.51,5.11A62.63,62.63,0,0,1,204.43,147a47,47,0,0,1,4,4.4,51.37,51.37,0,0,1,3.45,4.89,60,60,0,0,1,5.21,10.65,71.38,71.38,0,0,1,3.19,11.32c.38,1.92.66,3.85.88,5.79s.38,3.86.42,5.9v-.15a40.31,40.31,0,0,1,0,7.12,35.59,35.59,0,0,1-4,13.41,27.07,27.07,0,0,1-4,5.67,32.8,32.8,0,0,0,2.91-6.14,39.89,39.89,0,0,0,1.7-6.48,44.08,44.08,0,0,0,.55-6.6,40.77,40.77,0,0,0-.58-6.54v-.15a76.53,76.53,0,0,0-2.08-10.87,80.91,80.91,0,0,0-3.46-10.52A55.87,55.87,0,0,0,201,150.33a58.2,58.2,0,0,0-8.27-7.15,74.88,74.88,0,0,0-9.42-5.91A95.67,95.67,0,0,0,162.24,129.05Z"/><path class="cls-14" d="M122.08,132.72a79.48,79.48,0,0,0-17.92,18.18c-12.07,17.08-13,39.84-1.59,57.39a39.76,39.76,0,0,0,5.54,7c21.19,21.4,52.22,23.85,52.22,23.85l-2.75.53a85.1,85.1,0,0,1-39.12-1.57c-2.95-.83-5.72-1.71-8.23-2.58a44.2,44.2,0,0,1-26.88-25.56A54.92,54.92,0,0,1,81,178.13C94.45,135.78,122.08,132.72,122.08,132.72Z"/><path class="cls-15" d="M150.72,170.51a27.51,27.51,0,0,0-13.17,4,14.84,14.84,0,0,0-7.24,11.6,22.08,22.08,0,0,0,.08,4.19,3.41,3.41,0,0,0,.29,1.44c6.84,11.43,15.26,6.67,15.26,6.67a8.1,8.1,0,0,0,6.21-7.78h0c-2.15,2.73-6.49.67-6.49.67a6.26,6.26,0,0,1-3.16-6.22,9.54,9.54,0,0,1,1.23-4A73.5,73.5,0,0,1,150.72,170.51Z"/><path class="cls-15" d="M163.43,181.81a18.5,18.5,0,0,0-.94,7.95,4.52,4.52,0,0,0,3.73,3.94,10.78,10.78,0,0,0,2.36.14,8.76,8.76,0,0,0,5.91-2.85,24.32,24.32,0,0,0,1.83-2.24c.23,5.27-5.79,9-5.79,9-7.39,1.55-11.35-1.44-11.35-1.44-4.35-2.29-3.49-9.34-3.49-9.34l1.09-3.24Z"/><path class="cls-11" d="M81.08,178C86.19,161.06,94,149.42,103,141.51c26.26-23,62.92-14.49,74.08-11.71a39,39,0,0,1,5.37,1.72c39.65,16,42.25,49.68,40.86,66.32a33.63,33.63,0,0,1-7.6,18.77c-29.11,34.89-94.18,22.91-94.18,22.91C67.45,227.82,81.08,178,81.08,178Z"/><circle cx="116.5" cy="171.58" r="10.59"/><circle class="cls-16" cx="119.06" cy="167.93" r="3.02"/><circle cx="189.69" cy="167.54" r="10.59"/><circle class="cls-16" cx="186.67" cy="164.53" r="3.02"/><path d="M139.16,178a7.47,7.47,0,0,1,3.31-4.33c13.62-8.47,24.59,1.49,24.59,1.49a3.65,3.65,0,0,1,1,2.67,4.16,4.16,0,0,1-2.41,3.56s-8.84,3.89-9,4.57a19.4,19.4,0,0,0,.73,7.09l.37,1h-6.9c1.78-2.27,1.22-6.14,1-7.58a.93.93,0,0,0-.64-.74l-9.65-3.28a3.64,3.64,0,0,1-2.38-4.36Z"/><path class="cls-9" d="M130.44,187.37a11,11,0,0,0,3.2,9.41,11.51,11.51,0,0,0,6.55,3.42,13.07,13.07,0,0,0,8.91-1.9c4.81-3.36,5.31-7.26,5.31-7.26,2,7.72,7.91,8.33,7.91,8.33,7.79,1.3,11.85-2.67,11.85-2.67,4.41-4.07,4.05-11.07,4.05-11.07"/><path d="M136.56,199.75a11,11,0,0,0,.1,3.8,16.05,16.05,0,0,0,12.18,12.69,28.38,28.38,0,0,0,9,.54,18.26,18.26,0,0,0,14.21-10.09c1.44-2.87,1.13-7.08,1-7.93a.16.16,0,0,0-.17-.15H162.09l-7-3.9-4.38,2.34-7.85,3.26Z"/><path class="cls-17" d="M144,209.13a2,2,0,0,1,.14-2.49c3.67-4.26,10.89-4.21,10.89-4.21,7.08,0,10.12,2.62,11.17,3.89a1.54,1.54,0,0,1,.16,1.77,9.25,9.25,0,0,1-3.53,2.83,15,15,0,0,1-2.71,1.14,23.65,23.65,0,0,1-11.11.14,8.55,8.55,0,0,1-3.84-1.82A6.5,6.5,0,0,1,144,209.13Z"/><g class="cls-18"><path class="cls-19" d="M147.61,211.06c3.36-4,10.09-3.44,10.09-3.44a9.22,9.22,0,0,1,5.93,3l6-1.26-4.05-5.25-10.47-3.6-10.52,2.17s-4,4.23-4,5,4,4.71,4,4.71Z"/></g><path d="M88.64,156a10.77,10.77,0,0,0-11.49,5.09,12.79,12.79,0,0,0-2,6.16,11.79,11.79,0,0,0,5.22,10.38C85,169.33,88.64,156,88.64,156Z"/><path d="M210.56,150.35a10.77,10.77,0,0,1,12,3.66,12.78,12.78,0,0,1,2.72,5.87,11.76,11.76,0,0,1-3.92,10.94C215.83,163.18,210.56,150.35,210.56,150.35Z"/><path class="cls-20" d="M59.31,276.54s-17,4.62-18.34,13.38c-2.73,17.1,102,45.92,210.76,45.92,112,0,223.45-25.41,200.16-47.57-3.4-3.23-14.92-5.94-14.92-5.94"/><path class="cls-20" d="M72.18,289.06c179.57,57.53,345.74,8.76,345.74,8.76"/><path class="cls-20" d="M244.44,359.28c134.93,0,269.29-35.22,241.21-65.93-4.09-4.48-18-8.24-18-8.24"/><path class="cls-20" d="M32.69,276.08s-20.41,6.4-22.1,18.54"/></g></svg>